# xmcd CD database file
#
# Track frame offsets:
#	150
#	20369
#	38846
#	59038
#	72827
#	92110
#	107623
#	132594
#
# Disc length: 2011 seconds
#
# Revision: 0
# Processed by: cddbd v1.4PL0 Copyright (c) Steve Scherf et al.
# Submitted via: CDex 1.50Beta7
#
DISCID=6e07d908
DTITLE=The Blueballs - Blueballsology
DYEAR=1900
DGENRE=Blues
TTITLE0=I Can Tell
TTITLE1=Got Love If You Want It
TTITLE2=No Good Woman
TTITLE3=Route 66
TTITLE4=Kidney Stew
TTITLE5=Born In Chicago
TTITLE6=Rich Man's Woman
TTITLE7=Hey Miss Bessie
EXTD=
EXTT0=
EXTT1=
EXTT2=
EXTT3=
EXTT4=
EXTT5=
EXTT6=
EXTT7=
PLAYORDER=
